<?xml version="1.0" encoding="utf-8"?>
<svg xmlns="http://www.w3.org/2000/svg" xmlns:xlink="http://www.w3.org/1999/xlink">
    <symbol id="arrow-down-download" xmlns="http://www.w3.org/2000/svg" xmlns:xlink="http://www.w3.org/1999/xlink" x="0px" y="0px" xml:space="preserve" viewBox="0 0 492 492">
    <g>
      <g>
        <path d="M359.28,221.234l-16.12-16.176c-5.064-5.072-11.82-7.888-19.032-7.888c-7.208,0-14.064,2.772-19.128,7.84l-20.492,20.38
			V45.982c-0.008-14.84-12.08-24.888-26.92-24.888h-22.6c-14.836,0-27.376,10.052-27.376,24.892v180.568l-21.288-21.52
			c-5.072-5.068-11.704-7.86-18.916-7.86c-7.208,0-13.908,2.792-18.976,7.86l-16.092,16.12c-5.06,5.068-7.836,11.824-7.836,19.028
			c0,7.208,2.796,13.964,7.86,19.028l94.352,95.272c5.06,5.064,11.812,8.776,19.084,8.776h0.084c7.204,0,13.96-3.716,19.02-8.776
			l94.376-94.836c5.068-5.072,7.852-12.064,7.86-19.264C367.14,233.174,364.348,226.302,359.28,221.234z"></path>
      </g>
    </g>
        <g>
      <g>
        <path d="M491.716,311.838c0-14.84-11.684-25.472-26.524-25.472H442c-14.84,0-26.916,12.076-26.916,26.912l0.024,80.74H76.996
			l-0.252-80.74c0-14.836-12.076-26.912-26.916-26.912H27.024C12.188,286.366,0,296.518,0,311.354v119.184
			c0,21.2,17.36,40.368,38.56,40.368h414.996c21.196,0,38.444-18.208,38.444-39.416L491.716,311.838z"></path>
      </g>
    </g>
  </symbol>
    <symbol viewBox="0 0 100 100" id="csv" xmlns="http://www.w3.org/2000/svg"><circle cx="50" cy="50" r="48"/><path fill="currentColor" d="M70.3 36.6H29.7c-1.1 0-1.9.9-1.9 1.9v22.8c0 1.1.9 1.9 1.9 1.9h40.5c1.1 0 1.9-.9 1.9-1.9V38.5c.1-1.1-.8-1.9-1.8-1.9zm-2 11.5H51.9v-7.5h16.2v7.5h.2zm-20.4-7.5v7.5H31.7v-7.5h16.2zM31.7 51.9h16.2v7.5H31.7v-7.5zm20.2 7.5v-7.5h16.2v7.5H51.9z"/></symbol>
    <symbol viewBox="0 0 100 100" id="word" xmlns="http://www.w3.org/2000/svg"><circle cx="50" cy="50" r="48"/><path fill="currentColor" d="M70.3 47.9H31.9v4.3h38.4v-4.3zM31.9 58.5h25.6v4.3H31.9v-4.3zm38.4-21.3H31.9v4.3h38.4v-4.3z"/></symbol>
    <symbol viewBox="0 0 100 100" id="powerpoint" xmlns="http://www.w3.org/2000/svg"><circle cx="50" cy="50" r="48"/><path fill="currentColor" d="M66 31.9H36.1c-2.3 0-4.3 1.9-4.3 4.3V66c0 2.3 1.9 4.3 4.3 4.3H66c2.3 0 4.3-1.9 4.3-4.3V36.1c0-2.3-2-4.2-4.3-4.2zM66 66H36.1V36.1H66V66zM40.4 46.8h4.3v14.9h-4.3V46.8zm8.5-6.4h4.3v21.3h-4.3V40.4zm8.6 12.8h4.3v8.5h-4.3v-8.5z"/></symbol>
    <symbol viewBox="0 0 100 100" id="pdf" xmlns="http://www.w3.org/2000/svg"><circle cx="50" cy="50" r="48"/><path fill="currentColor" d="M77.9 57.5c-1.7-3-7-4.7-15.1-4.7h-1.7c-2.1-2.3-4.3-5.1-6.2-7.7-.9-1.1-1.7-2.1-2.6-3.2 1.3-3.4 1.9-6.2 1.9-8.3.4-5.3-.2-8.7-1.9-10.5-1.1-1.3-2.8-1.5-4.3-1.1-1.1.4-2.6 1.3-3.4 4.1-1.3 3.8-.6 10.7 3 16.4-1.7 4.3-3.8 9-6.4 13.7-4.7 1.7-8.5 3.8-11.1 6.4-3.6 3.4-4.9 6.8-3.8 9.4.6 1.5 2.1 2.6 3.8 2.6 1.3 0 2.6-.4 4.1-1.3 3.4-2.1 7.7-9.4 10-13.7 4.9-1.5 9.6-2.1 11.9-2.3 1.1 0 2.1-.2 3.2-.2 4.3 4.5 7.7 6.8 10.9 7.5.6.2 1.3.2 1.9.2 2.6 0 4.7-1.1 5.8-2.8.9-1.5.9-3.3 0-4.5zm-3.4 2.1c-.2.2-.9.9-2.3.9-.4 0-.9 0-1.3-.2-1.7-.2-3.6-1.5-6-3.4 6.4.1 9 1.6 9.6 2.7zM50.2 33.4c0 1.1-.2 2.3-.6 3.8-1.3-3.4-1.7-7.3-.9-9.8.2-.9.6-1.3.9-1.3.2 0 1 1.5.6 7.3zm.2 13c.4.4.9.9 1.1 1.5 1.3 1.7 2.8 3.4 4.3 5.3h-.2c-2.1.2-5.3.6-9 1.5 1.5-3 2.8-5.8 3.8-8.3zM38.1 61.9c-2.6 4.1-4.7 6.8-6 7.7-.6.4-1.3.6-1.7.6h-.2c0-.4.2-2.1 3-4.9 1.2-1 2.7-2.3 4.9-3.4z"/></symbol>
    <symbol viewBox="0 0 100 100" id="video" xmlns="http://www.w3.org/2000/svg"><circle cx="50" cy="50" r="48"/><path fill="currentColor" d="M42.5 38.3v22.2c0 1.3.9 2.1 2.1 2.1.4 0 .9-.2 1.1-.4L63 51.1c1.1-.6 1.3-1.9.6-3l-.6-.6-17.3-11.2c-1.1-.6-2.3-.4-3 .6-.2.5-.2.9-.2 1.4z"/></symbol>
    <symbol viewBox="0 0 100 100" id="webpage" xmlns="http://www.w3.org/2000/svg"><circle cx="50" cy="50" r="48"/><path fill="currentColor" d="M55.8 29.7H36.1c-2.3 0-4.3 1.9-4.3 4.3v29.9c0 2.3 1.9 4.3 4.3 4.3H66c2.3 0 4.3-1.9 4.3-4.3V44.2c0-1.1-.4-2.1-1.3-3L58.7 31c-.8-.8-1.9-1.3-2.9-1.3zM42.5 55.3h17.1c1.3 0 2.1.9 2.1 2.1 0 1.3-.9 2.1-2.1 2.1H42.5c-1.3 0-2.1-.9-2.1-2.1 0-1.2.9-2.1 2.1-2.1zm0-8.5h17.1c1.3 0 2.1.9 2.1 2.1 0 1.3-.9 2.1-2.1 2.1H42.5c-1.3 0-2.1-.9-2.1-2.1 0-1.2.9-2.1 2.1-2.1zm0-8.5h10.7c1.3 0 2.1.9 2.1 2.1 0 1.3-.9 2.1-2.1 2.1H42.5c-1.3 0-2.1-.9-2.1-2.1 0-1.3.9-2.1 2.1-2.1z"/></symbol>
    <symbol viewBox="0 0 100 100" id="external" xmlns="http://www.w3.org/2000/svg"><circle cx="50" cy="50" r="48"/><path fill="currentColor" d="M43.6 37.2c0 1.3.9 2.1 2.1 2.1h11.9L34.4 62.6c-.9.9-.9 2.1 0 3 .9.9 2.1.9 3 0l23.3-23.3v11.9c0 1.3.9 2.1 2.1 2.1 1.3 0 2.1-.9 2.1-2.1v-17c0-1.3-.9-2.1-2.1-2.1H45.7c-1.2 0-2.1.8-2.1 2.1z"/></symbol>
</svg>
